<svg width="17" height="17" viewBox="0 0 17 17" fill="none" xmlns="http://www.w3.org/2000/svg">
<g clip-path="url(#clip0_1_1021)">
<path d="M3.74861 2.5H13.2513C13.3565 2.49999 13.4602 2.52486 13.5539 2.5726C13.6476 2.62034 13.7288 2.68958 13.7906 2.77467L16.3393 6.27867C16.3846 6.34101 16.4069 6.41714 16.4024 6.49408C16.3979 6.57102 16.3669 6.64402 16.3146 6.70067L8.74461 14.9013C8.68463 14.9662 8.60138 15.0045 8.51314 15.008C8.42489 15.0115 8.33886 14.9799 8.27394 14.92C8.26927 14.916 5.74061 12.1767 0.685274 6.70067C0.63301 6.64402 0.601989 6.57102 0.597492 6.49408C0.592995 6.41714 0.615299 6.34101 0.660608 6.27867L3.20927 2.77467C3.27113 2.68958 3.35224 2.62034 3.44597 2.5726C3.53971 2.52486 3.64341 2.49999 3.74861 2.5ZM4.08861 3.83333L2.22194 6.4L8.49994 13.2L14.7779 6.4L12.9113 3.83333H4.08861Z" fill="white"/>
</g>
<defs>
<clipPath id="clip0_1_1021">
<rect width="16" height="16" fill="white" transform="translate(0.5 0.5)"/>
</clipPath>
</defs>
</svg>
